<?xml version="1.0" encoding="UTF-8"?>
<!DOCTYPE svg PUBLIC "-//W3C//DTD SVG 1.1//EN" "http://www.w3.org/Graphics/SVG/1.1/DTD/svg11.dtd">
<svg version="1.1" xmlns="http://www.w3.org/2000/svg" xmlns:xlink="http://www.w3.org/1999/xlink" width="300" height="200"  xml:space="preserve">
    <path id="bezier5" stroke="rgb(0, 0, 0)" stroke-opacity="0" stroke-width="8" stroke-miterlimit="10" fill="rgb(0, 0, 0)" d="M 15.05,5.14 L 5.79,5.14 5.79,20.18 18.08,20.18 18.01,8.2 15.05,5.14 Z M 19.05,7.51 L 19.22,7.69 19.22,7.94 19.22,20.88 19.22,21.5 4.5,21.5 4.5,20.88 4.58,3.9 15.5,3.9 19.05,7.51 Z M 13.08,8.94 L 15.43,8.94 15.43,11.27 13.08,11.27 13.08,13.83 10.65,13.83 10.65,11.27 8.29,11.27 8.29,8.94 10.65,8.94 10.65,6.38 13.08,6.38 13.08,8.94 Z M 8.22,18.55 L 15.35,18.55 15.35,16.31 8.22,16.31 8.22,18.55 Z M 20.44,18.86 L 21.5,18.86 21.5,6.46 16.79,1.5 7.08,1.5 7.08,2.59 16.19,2.59 20.44,6.93 20.44,18.86 Z M 20.44,18.86" />
</svg>
